<svg xmlns="http://www.w3.org/2000/svg" viewBox="0 0 525 300" width="525.000000pt" height="300.000000pt"><g xmlns="http://www.w3.org/2000/svg" transform="matrix(0 -1 1 0 -0 300)"><metadata>Created by potrace 1.10, written by Peter Selinger 2001-2011</metadata><g transform="translate(0.000000,525.000000) scale(0.100000,-0.100000)" fill="#000000" stroke="none"><path d="M1398 5134 c-35 -18 -61 -69 -92 -178 -36 -121 -56 -243 -63 -378 -3 -65 -10 -118 -16 -118 -5 0 -4 -7 3 -15 7 -8 10 -21 7 -29 -3 -8 -2 -49 2 -92 4 -43 3 -99 -2 -125 -8 -41 -13 -48 -38 -53 -38 -7 -55 -48 -40 -92 14 -39 14 -71 0 -76 -6 -2 -14 -27 -16 -55 -4 -40 -10 -52 -25 -56 -18 -5 -18 -7 -2 -44 9 -21 20 -66 25 -100 10 -76 24 -105 89 -179 59 -68 110 -142 110 -161 0 -7 -12 -15 -27 -19 -16 -4 -55 -21 -88 -39 -33 -18 -85 -38 -115 -45 -30 -7 -101 -30 -158 -52 -84 -32 -114 -50 -162 -95 -77 -71 -147 -177 -196 -294 -27 -67 -81 -158 -190 -319 -83 -124 -156 -235 -163 -247 -14 -27 -7 -44 50 -119 l39 -50 -28 -66 c-15 -36 -49 -89 -76 -119 -120 -134 -167 -244 -211 -499 -8 -47 -15 -94 -14 -105 1 -39 20 26 40 140 25 134 70 273 111 340 40 66 116 155 130 152 6 -1 19 24 30 56 29 84 27 85 112 -89 l59 -122 -56 -188 c-78 -260 -124 -447 -131 -524 -7 -87 -23 -137 -47 -151 -11 -6 -29 -31 -40 -56 -11 -25 -29 -59 -40 -75 l-22 -30 -38 38 c-22 21 -39 35 -39 31 0 -4 15 -21 32 -37 l33 -29 -22 -16 c-33 -23 -118 -301 -111 -361 2 -19 20 34 53 155 l50 184 49 31 c28 17 79 47 115 66 l66 35 81 -64 82 -65 -46 -29 c-69 -43 -170 -149 -195 -204 -16 -36 -22 -67 -22 -128 0 -75 3 -86 48 -183 27 -57 50 -109 51 -115 2 -7 11 -27 22 -44 14 -25 26 -33 47 -33 l28 0 -23 33 c-12 17 -38 52 -57 77 -48 64 -82 141 -68 158 14 17 82 52 101 52 8 0 23 11 33 26 102 144 187 243 236 274 23 14 34 16 60 7 70 -23 353 -150 362 -162 15 -18 86 -37 99 -25 7 5 49 -4 107 -23 l96 -32 7 -115 c10 -183 25 -270 46 -270 13 0 30 35 70 143 29 78 60 160 70 182 10 22 21 72 25 110 9 104 23 162 60 240 37 76 149 232 166 227 5 -1 12 4 15 12 3 8 11 13 17 10 7 -2 20 10 30 28 16 28 16 30 1 17 -9 -8 -20 -13 -23 -11 -3 2 -7 -2 -10 -9 -2 -7 1 -9 9 -4 9 6 11 4 5 -4 -5 -9 -10 -10 -18 -2 -8 8 -16 6 -28 -5 -17 -15 -18 -13 -29 26 -6 23 -10 43 -8 45 4 4 99 -15 243 -49 140 -32 298 -56 375 -56 l60 0 -1 -47 c0 -39 -2 -44 -9 -25 -14 33 -19 27 -14 -15 4 -29 3 -34 -5 -23 -9 12 -11 10 -11 -11 0 -15 -3 -42 -6 -60 l-6 -34 16 29 c9 15 16 34 16 41 0 8 6 20 14 28 8 8 16 36 18 63 3 51 6 53 61 45 5 0 6 -14 2 -30 -5 -25 -2 -32 22 -47 15 -10 29 -19 31 -20 2 -1 -13 -24 -32 -52 -41 -56 -42 -59 -20 -64 14 -3 13 -7 -7 -31 -18 -24 -20 -31 -8 -38 11 -8 9 -14 -13 -33 -14 -13 -42 -58 -61 -100 -48 -103 -157 -282 -234 -384 -62 -82 -76 -115 -32 -76 39 35 197 283 256 402 31 64 71 134 87 155 22 28 27 40 18 46 -10 6 -7 14 8 34 20 25 19 54 -1 42 -19 -12 -8 9 28 53 39 48 39 46 -13 78 -16 10 -17 15 -6 52 10 33 18 42 35 42 51 0 57 16 67 165 5 78 14 174 20 215 6 41 15 136 20 210 5 74 19 187 31 250 18 93 22 147 22 285 -1 230 -16 302 -91 463 -33 70 -67 144 -76 166 -20 48 -152 273 -166 281 -5 3 -10 21 -10 38 -1 18 -14 66 -30 107 -17 41 -30 80 -30 87 0 6 -30 38 -66 71 l-67 60 6 49 c9 63 51 101 149 134 40 13 77 27 82 31 6 5 0 18 -13 32 l-23 25 51 25 c28 15 51 29 51 33 0 4 -12 20 -27 35 l-28 29 33 25 32 26 -30 36 -30 36 25 14 c22 11 23 15 13 32 -11 18 -6 26 44 77 80 82 122 157 172 313 71 215 91 355 62 423 -39 93 -95 90 -316 -20 -85 -42 -159 -79 -163 -81 -4 -2 -6 2 -5 10 2 7 -2 12 -9 11 -7 -2 -15 13 -19 35 -20 114 -30 156 -39 159 -5 1 -24 -23 -41 -53 l-31 -56 -41 58 c-49 69 -170 194 -188 194 -16 0 -19 -10 -38 -130 l-6 -35 -98 47 c-53 26 -102 48 -109 48 -6 0 -46 52 -88 116 -73 109 -119 154 -155 154 -8 -1 -27 -8 -42 -16z m102 -36 c18 -17 43 -50 57 -72 14 -23 39 -60 54 -84 29 -43 29 -43 7 -40 -21 3 -23 -1 -23 -48 l1 -50 -40 13 c-60 21 -72 11 -41 -34 l25 -38 -48 -7 c-27 -4 -87 -21 -133 -37 -46 -16 -86 -28 -88 -25 -10 10 31 218 61 310 16 51 41 105 54 119 33 36 74 33 114 -7z m512 -236 c35 -38 84 -96 107 -130 24 -34 47 -62 50 -62 3 1 19 29 35 63 l29 62 13 -70 c7 -38 13 -85 13 -102 1 -24 6 -33 19 -34 9 0 -22 -20 -70 -44 -76 -39 -113 -65 -93 -65 4 0 114 54 245 120 131 65 265 127 299 136 l62 18 27 -27 c24 -24 27 -36 30 -105 3 -62 -2 -103 -26 -198 -64 -251 -120 -365 -230 -464 -57 -52 -60 -57 -41 -68 33 -21 21 -32 -36 -32 -46 0 -53 -2 -48 -16 5 -14 3 -15 -15 -5 -11 6 -24 16 -27 21 -7 12 -25 13 -25 3 0 -11 63 -53 79 -53 8 0 11 6 7 15 -11 31 29 14 62 -25 l32 -39 -30 -18 c-37 -21 -37 -29 -5 -63 l26 -27 -52 -32 -52 -32 23 -24 c18 -19 20 -25 9 -29 -76 -22 -149 -51 -172 -68 -22 -15 -31 -17 -43 -8 -23 20 -17 28 26 35 22 4 43 11 46 16 3 6 -7 26 -22 46 l-28 36 35 29 c33 28 33 30 15 44 -11 8 -28 14 -38 14 -10 0 -17 6 -15 12 1 7 -9 14 -23 16 -22 2 -23 1 -7 -8 9 -6 15 -15 12 -21 -4 -5 4 -9 17 -9 13 0 30 -4 37 -9 12 -8 11 -13 -10 -30 -13 -11 -27 -20 -31 -21 -16 0 -7 -28 17 -50 35 -32 31 -47 -12 -55 -53 -10 -55 -13 -36 -42 l17 -26 -51 6 c-40 5 -51 3 -47 -7 4 -10 -12 -13 -68 -13 -58 1 -97 -7 -193 -38 -94 -31 -139 -40 -209 -43 -73 -3 -91 -1 -98 12 -11 20 -38 21 -38 2 0 -8 -21 6 -47 30 -41 37 -50 41 -59 29 -10 -14 -13 -13 -24 0 -7 9 -18 14 -24 12 -6 -3 -25 14 -41 36 -17 22 -54 68 -83 101 -82 95 -99 181 -46 227 26 22 107 64 174 89 63 25 82 38 74 52 -14 23 80 -19 133 -59 22 -17 33 -36 38 -63 3 -21 16 -47 28 -59 49 -45 276 -131 349 -131 29 0 67 41 87 93 8 19 17 27 35 27 27 0 46 25 46 58 0 13 -10 24 -30 31 -16 5 -30 14 -30 19 0 15 -151 84 -235 107 l-50 14 56 0 c113 2 224 32 214 59 -3 9 0 19 7 24 10 6 8 13 -10 27 -20 17 -20 20 -5 23 14 3 10 9 -17 23 -27 15 -61 20 -148 23 -133 5 -189 -2 -219 -28 l-23 -18 20 -44 c11 -23 18 -32 16 -20 -5 28 -5 28 28 -21 l26 -37 -40 6 c-48 8 -67 -5 -76 -51 l-6 -32 -56 33 c-35 21 -69 34 -90 34 l-35 0 6 43 c3 23 3 34 0 25 -4 -15 -8 -13 -29 12 -24 28 -134 90 -161 90 -14 0 -16 21 -6 70 4 21 16 38 34 49 20 11 27 21 23 34 -3 11 2 27 13 39 18 20 18 21 -20 16 l-38 -4 53 47 c29 27 49 49 43 50 -5 1 -14 2 -20 4 -5 1 -29 3 -52 3 -66 3 -61 9 70 82 l47 27 -60 47 c-34 27 -64 46 -66 43 -3 -3 17 -23 45 -44 27 -21 50 -40 50 -43 0 -6 -123 -79 -127 -75 -8 7 12 172 22 172 6 1 51 15 101 32 49 17 113 34 142 38 l52 6 -30 36 c-27 33 -28 36 -10 39 11 2 33 -4 50 -12 16 -9 32 -16 34 -16 2 0 0 23 -4 52 -5 29 -6 54 -4 56 6 7 178 -64 242 -99 29 -16 54 -25 56 -21 3 4 8 34 11 67 9 72 15 95 25 95 5 0 37 -31 73 -68z m-701 -432 l29 0 -39 -35 c-21 -19 -41 -35 -45 -35 -3 0 -6 18 -6 41 0 33 3 40 16 35 9 -3 29 -6 45 -6z m-24 -124 c-12 -18 -22 -33 -23 -32 -1 0 -4 13 -8 28 -5 20 -2 28 11 31 39 10 42 6 20 -27z m730 -184 c13 -7 22 -17 20 -22 -1 -5 7 -16 18 -24 20 -15 20 -15 1 -16 -16 0 -17 -3 -8 -12 18 -18 15 -27 -15 -39 -43 -16 -246 -38 -265 -28 -17 9 -78 108 -78 127 0 19 82 31 195 28 62 -1 120 -8 132 -14z m-796 -91 c-7 -31 -6 -41 2 -38 7 2 13 29 15 61 3 62 22 73 33 20 4 -16 7 -21 8 -11 1 21 4 21 40 2 24 -12 29 -22 33 -66 4 -38 11 -56 28 -69 20 -15 21 -18 5 -23 -30 -12 -46 -7 -77 23 -17 17 -32 29 -34 27 -7 -7 29 -49 50 -57 20 -8 20 -8 -6 -20 -23 -11 -31 -10 -60 7 -48 28 -60 57 -53 130 3 35 9 71 13 80 12 30 14 -17 3 -66z m179 4 c8 -9 15 -38 15 -63 1 -26 0 -37 -2 -24 -3 12 -9 22 -14 22 -14 0 -11 40 4 40 6 1 -4 15 -23 32 -19 16 -26 25 -14 20 11 -6 27 -18 34 -27z m499 -122 c121 -40 151 -57 151 -87 0 -26 -51 -137 -71 -153 -23 -19 -138 9 -235 57 l-81 41 0 52 c0 43 1 47 7 22 l8 -30 1 27 c0 15 -4 30 -9 33 -11 7 -3 53 13 73 15 19 90 7 216 -35z m-729 12 c0 6 6 -1 13 -14 6 -13 27 -32 45 -42 l34 -18 -34 -16 c-18 -10 -43 -27 -55 -38 l-23 -20 -16 38 c-13 31 -13 39 -2 46 7 5 16 9 20 9 4 0 4 17 2 38 -4 28 -3 33 5 22 6 -8 11 -10 11 -5z m972 -526 c-13 -4 -10 -7 10 -11 14 -3 32 -1 40 3 11 6 13 -6 13 -59 l0 -66 -41 -18 c-104 -45 -299 -62 -379 -33 -22 8 -71 14 -109 15 -38 0 -85 5 -105 11 -44 13 -89 45 -78 55 4 4 14 -1 22 -12 8 -10 15 -14 15 -9 0 6 4 4 9 -4 8 -12 19 -12 74 3 35 10 100 33 143 53 138 62 218 82 316 80 48 -1 80 -5 70 -8z m-762 -54 c0 -12 7 -14 26 -9 19 5 25 4 20 -5 -5 -8 0 -8 18 -2 18 7 28 6 36 -5 11 -12 7 -14 -22 -14 -38 0 -58 -15 -58 -42 0 -10 -18 -41 -40 -69 l-39 -50 -4 68 c-2 48 -4 35 -5 -43 -2 -89 -5 -113 -17 -118 -12 -4 -13 -11 -5 -31 13 -35 13 -35 -8 -35 -15 0 -22 13 -32 58 -7 31 -19 69 -26 85 -14 25 -18 27 -87 28 -39 1 -83 4 -97 8 -25 8 -25 8 13 31 21 12 36 25 33 27 -6 6 -86 -40 -86 -50 0 -14 51 -27 113 -27 61 -1 62 -1 90 -41 26 -38 35 -63 41 -119 1 -14 6 -33 11 -43 5 -12 3 -23 -5 -30 -10 -9 -11 -9 -5 3 4 8 -30 -23 -76 -71 -89 -90 -183 -235 -195 -297 -6 -32 -3 -39 32 -69 57 -49 60 -52 70 -45 5 4 10 14 12 22 11 52 158 275 234 356 45 48 55 53 172 89 101 31 132 36 169 31 45 -7 48 -9 103 -97 31 -49 58 -89 59 -89 7 0 159 66 297 129 155 70 178 76 249 73 34 -2 37 -6 108 -127 40 -68 85 -155 100 -192 14 -37 38 -88 53 -113 38 -64 65 -138 78 -211 6 -35 13 -74 15 -86 l5 -23 -32 18 c-30 17 -34 24 -40 83 -10 90 -54 204 -94 244 -18 18 -46 59 -62 92 -37 73 -122 219 -156 269 -46 69 -27 24 28 -66 30 -48 75 -128 100 -179 26 -50 59 -103 75 -117 45 -40 101 -190 101 -270 l0 -31 -142 -6 c-110 -5 -169 -13 -258 -36 -134 -34 -170 -47 -170 -60 0 -6 -7 -8 -15 -5 -17 7 -158 -60 -177 -84 -7 -8 5 -4 27 10 54 34 144 72 152 65 3 -4 0 -14 -8 -23 -16 -19 -189 -107 -196 -100 -3 3 7 45 22 93 24 77 53 147 151 361 13 28 22 52 19 52 -16 0 -135 -269 -182 -413 -20 -62 -43 -118 -50 -125 -7 -7 -13 -28 -14 -45 0 -18 -3 -26 -6 -18 -6 16 10 146 39 314 11 65 18 121 15 123 -13 13 -72 -393 -63 -436 2 -14 1 -38 -4 -55 -5 -16 -12 -42 -15 -57 -7 -35 -31 -36 -92 -6 -33 16 -63 47 -115 115 -69 91 -98 121 -63 66 30 -47 93 -128 166 -212 l69 -79 -20 -78 c-10 -43 -27 -135 -37 -204 l-17 -125 -18 80 c-27 118 -151 556 -156 550 -3 -2 1 -25 8 -50 7 -25 10 -48 7 -51 -3 -4 -36 16 -73 42 -109 81 -111 82 -95 61 10 -13 10 -17 1 -17 -9 0 -9 -4 1 -17 13 -16 12 -17 -4 -4 -9 8 -15 16 -13 19 3 2 -15 29 -41 59 -25 29 -48 51 -51 48 -3 -3 -12 1 -21 7 -17 13 -1 -7 73 -92 27 -30 54 -55 61 -55 6 0 25 -9 41 -19 28 -18 28 -18 -5 18 -46 47 -32 46 27 -3 54 -44 89 -64 101 -57 7 5 85 -265 132 -460 19 -81 20 -102 12 -180 -12 -111 -6 -129 44 -138 53 -9 63 -17 74 -64 9 -41 -7 -102 -32 -118 -23 -14 -108 -156 -128 -214 -11 -34 -26 -106 -32 -160 -9 -72 -16 -95 -23 -86 -6 7 -49 25 -96 41 -47 15 -137 54 -200 87 -63 34 -162 78 -219 100 -130 48 -245 109 -367 193 -88 62 -114 85 -79 71 23 -8 18 -2 -17 24 -31 22 -32 22 -14 2 11 -12 16 -22 12 -22 -7 0 -171 124 -229 173 -34 29 -34 51 -2 187 39 159 156 583 167 600 7 11 7 8 2 -10 -12 -43 -17 -432 -6 -470 7 -25 9 6 5 115 -7 193 8 344 58 565 73 319 71 305 42 374 -19 47 -24 69 -18 101 3 22 8 67 10 101 8 128 63 234 184 354 53 52 110 98 148 118 34 18 65 37 68 42 17 27 -112 -47 -179 -102 l-48 -41 7 64 c4 35 11 71 15 79 23 42 244 132 286 116 9 -3 49 15 92 41 120 73 202 100 202 68z m161 -137 c7 -14 3 -21 -22 -34 -31 -16 -32 -15 -62 14 -23 23 -28 36 -23 55 3 14 14 27 24 30 17 4 66 -34 83 -65z m791 -38 c6 -14 23 -58 38 -97 26 -68 27 -73 9 -73 -19 0 -157 -57 -314 -130 -155 -72 -239 -103 -243 -90 -12 36 -113 168 -141 184 -27 15 -38 17 -64 8 l-32 -11 34 5 c23 4 31 3 27 -5 -4 -6 -17 -11 -28 -11 -11 0 -78 -19 -148 -41 l-128 -41 -81 -105 c-44 -57 -106 -149 -137 -204 -31 -54 -60 -99 -65 -99 -5 0 -26 15 -46 33 l-36 34 31 68 c40 84 110 191 153 230 18 17 29 24 25 17 -9 -16 11 -42 32 -42 18 0 52 28 52 43 0 6 -11 0 -24 -13 -33 -30 -70 -18 -48 16 4 7 34 13 67 15 33 2 62 7 65 10 3 3 43 19 90 35 46 16 112 46 147 66 59 36 66 38 180 44 99 5 142 14 263 50 289 86 293 89 245 146 -14 16 -25 39 -25 51 0 18 6 15 46 -23 25 -25 51 -56 56 -70z m-901 2 c32 5 40 -7 10 -17 -10 -3 -25 -13 -34 -23 -13 -15 -14 -21 -2 -49 8 -18 18 -33 22 -33 5 0 31 23 58 50 63 64 80 65 89 3 3 -27 9 -60 12 -74 5 -23 0 -29 -38 -51 -87 -51 -277 -114 -316 -106 -13 3 -8 9 16 22 34 18 35 24 16 70 -7 17 -4 19 25 13 28 -6 32 -4 27 9 -11 28 -18 64 -13 64 2 0 24 -7 47 -15 23 -8 50 -15 59 -14 9 0 -5 8 -31 17 -27 9 -48 20 -48 25 -1 76 9 98 34 78 18 -15 22 -1 4 17 -9 9 -7 17 8 33 l19 21 3 -22 c3 -18 9 -21 33 -18z m302 19 c50 -12 52 -14 31 -46 -17 -26 -22 -27 -71 -22 -29 3 -55 2 -57 -2 -8 -12 47 -40 93 -47 41 -7 42 -6 57 32 l15 39 137 0 c136 0 162 5 264 49 12 6 17 2 20 -16 4 -30 -30 -46 -231 -103 -127 -37 -170 -45 -237 -45 l-82 0 -12 31 c-7 17 -23 37 -36 45 -31 21 -41 64 -18 81 21 15 72 16 127 4z m-961 -165 c-8 -82 -28 -102 -24 -24 3 46 20 104 28 95 2 -1 0 -33 -4 -71z m-37 -37 c-3 -43 -9 -68 -23 -83 -33 -36 -73 -106 -97 -171 -20 -52 -24 -82 -25 -186 -1 -68 2 -166 5 -217 5 -75 2 -110 -16 -190 -12 -53 -25 -102 -28 -109 -4 -7 -47 46 -101 124 -52 75 -106 148 -118 162 -23 25 151 -238 190 -289 16 -20 18 -33 13 -75 -11 -81 -17 -83 -67 -23 -25 29 -66 85 -90 124 -25 38 -64 95 -87 125 -22 30 -41 59 -41 65 0 9 277 433 296 453 3 3 -2 -15 -11 -38 -8 -24 -15 -51 -14 -60 0 -9 19 38 43 104 54 152 86 221 131 290 20 30 38 55 40 55 2 0 1 -28 0 -61z m1960 -780 c16 -8 31 -22 33 -32 3 -17 2 -17 -25 -4 -34 18 -130 28 -250 28 -66 0 -105 -5 -149 -21 -32 -11 -90 -31 -129 -44 -38 -13 -78 -27 -89 -31 -18 -8 -18 -7 -1 18 17 27 74 49 200 77 135 31 356 36 410 9z m-7 -43 c53 -27 56 -36 49 -164 -4 -64 -16 -171 -28 -237 -12 -66 -22 -142 -24 -170 -1 -27 -5 -75 -8 -105 -3 -30 -14 -129 -24 -218 l-17 -164 -32 4 c-18 2 -30 0 -28 -4 3 -4 18 -8 33 -8 l28 0 -5 -72 c-2 -40 -5 -74 -7 -75 -1 -2 -23 -9 -48 -17 -46 -14 -47 -14 -42 7 3 12 12 71 19 130 l13 109 -25 9 c-14 5 -51 12 -82 16 l-57 6 5 -32 c2 -17 1 -42 -2 -56 -9 -36 -37 -33 -234 20 -92 25 -228 57 -302 71 -74 14 -144 27 -155 30 -16 4 -17 3 -5 -4 8 -6 76 -21 150 -36 74 -14 211 -46 304 -71 93 -25 185 -45 204 -45 l34 0 -7 -47 c-12 -88 -26 -123 -49 -123 -32 0 -300 48 -386 69 -41 11 -118 26 -172 36 -53 9 -103 22 -112 28 -16 13 -18 -6 30 366 9 67 23 146 31 175 9 28 17 58 18 66 4 23 63 234 74 261 19 48 24 64 22 72 -1 5 3 6 8 2 6 -3 47 13 91 35 94 47 96 55 -35 -125 -52 -71 -108 -157 -125 -190 -34 -66 -32 -64 56 68 33 51 95 139 138 197 l77 105 152 53 152 53 147 -5 c102 -4 156 -10 176 -20z m-175 -981 c26 -4 37 -11 37 -23 -1 -34 -30 -235 -35 -240 -3 -3 -33 -8 -66 -10 -59 -4 -60 -4 -55 19 11 47 26 181 26 226 0 43 1 44 28 39 15 -2 44 -7 65 -11z m-2210 -218 c-8 -37 -18 -66 -20 -63 -3 3 0 29 7 58 15 67 19 82 24 77 2 -2 -3 -35 -11 -72z m187 -73 c0 -7 -5 -36 -11 -63 l-10 -50 -84 65 c-68 53 -82 69 -78 87 3 12 9 39 14 59 l10 37 79 -61 c44 -34 80 -67 80 -74z m-224 17 c-7 -11 20 -35 32 -28 4 3 14 2 22 -3 9 -6 -4 -17 -48 -39 -34 -17 -63 -31 -66 -31 -2 0 8 25 22 55 14 30 30 55 34 55 5 0 7 -4 4 -9z m338 -88 c50 -37 95 -70 99 -74 9 -7 -12 -89 -22 -89 -3 0 -49 24 -101 54 -59 33 -94 58 -92 66 2 8 6 36 9 62 3 26 8 48 11 48 2 0 46 -30 96 -67z m134 -143 c-6 -24 -16 -40 -25 -40 -11 0 -14 6 -9 23 4 12 9 34 13 50 4 20 9 25 18 17 10 -8 10 -20 3 -50z m-140 5 c42 -25 71 -45 65 -45 -20 0 -138 -125 -203 -214 -48 -66 -70 -88 -102 -101 -23 -9 -54 -25 -69 -35 l-27 -20 -12 45 c-28 98 15 210 116 304 62 58 130 109 147 110 4 1 42 -19 85 -44z m404 -90 l97 -38 -6 -31 c-3 -17 -7 -33 -9 -34 -1 -2 -78 29 -171 70 -130 57 -168 78 -170 93 -3 20 -3 20 6 0 7 -17 9 -14 15 17 l7 37 67 -39 c37 -21 111 -55 164 -75z m172 -100 c-8 -41 -15 -46 -51 -39 l-30 6 10 48 9 49 35 -17 c30 -14 33 -19 27 -47z m254 -91 c50 -20 95 -41 98 -46 8 -12 2 -11 -186 54 -80 27 -148 53 -152 56 -4 4 -5 17 -2 28 5 20 8 19 77 -17 40 -21 114 -55 165 -75z m-3 -33 c17 -7 21 -23 31 -127 10 -110 10 -123 -9 -177 -11 -31 -21 -56 -23 -55 -10 11 -37 368 -27 367 5 0 17 -4 28 -8z m108 -31 c23 0 22 -9 -15 -92 l-33 -73 -7 50 c-3 28 -7 67 -7 89 -1 35 1 38 22 32 12 -3 30 -6 40 -6z" /><path d="M2678 4696 c-25 -7 -58 -20 -72 -30 -45 -29 -115 -134 -189 -284 -57 -116 -76 -146 -101 -159 -17 -9 -33 -17 -35 -19 -3 -2 8 -18 24 -34 l29 -30 -50 0 c-49 -1 -47 -9 5 -25 16 -5 21 -4 17 4 -5 7 2 11 18 11 32 0 33 10 1 40 l-24 23 31 21 c18 11 43 43 57 71 19 36 38 57 69 74 l44 23 -26 -51 c-15 -28 -24 -51 -22 -51 3 0 17 5 33 11 l28 10 -27 -28 c-31 -32 -35 -43 -15 -43 16 0 87 -48 87 -59 0 -5 -27 -19 -60 -31 -33 -12 -60 -26 -60 -30 0 -4 9 -15 20 -25 29 -26 25 -35 -12 -24 -47 13 -53 11 -35 -9 24 -26 21 -33 -10 -26 -22 6 -25 4 -20 -10 9 -22 -2 -20 -46 9 -20 14 -37 22 -37 18 0 -8 82 -63 94 -63 3 0 6 8 6 19 0 14 6 17 25 13 27 -5 33 6 13 26 -8 8 -2 10 25 5 43 -7 46 3 16 41 l-20 26 28 10 c93 32 102 55 38 97 l-45 29 25 24 c33 31 32 44 -4 37 l-29 -6 25 45 c14 25 23 48 20 51 -4 3 -27 -7 -52 -21 -25 -15 -45 -24 -45 -21 0 11 64 131 102 192 53 84 105 129 159 138 46 8 88 25 59 24 -8 0 -36 -6 -62 -13z" /><path d="M1775 4472 c-6 -5 -53 -26 -105 -47 -52 -21 -123 -52 -157 -70 l-63 -33 7 27 c3 14 10 36 14 49 11 30 11 38 0 27 -12 -13 -41 -112 -35 -118 3 -2 29 8 58 24 45 25 261 119 271 119 2 0 -4 -18 -12 -40 -9 -22 -14 -43 -11 -46 4 -3 26 1 50 9 23 8 57 18 75 22 32 6 32 6 26 -29 l-5 -35 66 26 c36 15 66 30 66 35 0 4 -25 -4 -57 -17 -31 -14 -58 -23 -61 -20 -3 3 0 17 7 31 6 15 10 28 8 30 -5 5 -126 -25 -148 -36 -24 -13 -24 -9 2 41 20 41 22 67 4 51z" /><path d="M1345 4298 c17 -12 47 -39 68 -59 34 -34 37 -41 37 -93 0 -32 -4 -56 -10 -56 -31 0 -75 38 -115 98 -25 37 -45 63 -45 59 0 -15 32 -72 53 -94 11 -13 16 -23 11 -23 -5 0 11 -14 36 -30 60 -40 77 -39 86 5 12 65 -3 106 -62 163 -29 28 -62 52 -71 52 -14 -1 -11 -6 12 -22z" /><path d="M2568 4056 c-36 -33 -81 -62 -118 -77 -33 -13 -56 -25 -51 -27 14 -5 98 34 143 65 30 20 98 94 86 93 -2 -1 -29 -25 -60 -54z" /><path d="M1223 3800 c-54 -22 -51 -95 6 -157 16 -18 33 -42 36 -54 4 -11 9 -18 12 -16 2 3 0 14 -6 25 -10 18 -6 20 46 27 132 16 146 66 41 138 -58 40 -101 52 -135 37z m124 -46 c55 -36 74 -68 52 -89 -8 -7 -44 -15 -80 -19 -75 -7 -90 2 -114 71 -14 42 -8 58 30 73 27 12 51 4 112 -36z" /><path d="M1214 3721 c13 -20 108 -61 141 -60 23 0 18 4 -24 15 -30 8 -70 24 -89 36 -20 12 -32 16 -28 9z" /><path d="M1303 3518 c11 -10 27 -18 36 -18 9 0 52 -12 96 -26 146 -46 301 -41 321 11 12 30 -5 28 -42 -5 -37 -32 -39 -32 -108 -27 -39 3 -96 13 -126 21 -30 9 -82 23 -115 32 -33 9 -65 19 -70 23 -6 3 -2 -2 8 -11z" /><path d="M1720 3925 c0 -8 7 -15 16 -15 9 0 34 -5 55 -12 36 -10 39 -14 39 -49 0 -46 32 -87 76 -95 24 -4 37 0 62 21 18 15 32 33 32 42 0 10 6 12 20 8 27 -9 25 11 -3 29 -32 21 -235 86 -269 86 -18 0 -28 -5 -28 -15z m215 -75 c2 -4 -2 -16 -10 -26 -13 -18 -15 -18 -31 -2 -22 22 -12 48 16 41 11 -3 22 -9 25 -13z" /><path d="M1770 3772 c0 -5 20 -18 45 -30 47 -22 121 -28 160 -13 12 5 -7 7 -45 4 -56 -4 -72 -1 -112 21 -27 14 -48 22 -48 18z" /><path d="M935 3051 c-33 -16 -73 -41 -90 -56 l-30 -27 32 21 c17 12 38 20 45 19 7 -2 12 3 11 9 -2 9 8 11 29 9 17 -2 51 3 75 11 l44 15 -27 14 c-14 8 -27 14 -28 14 0 0 -28 -13 -61 -29z" /><path d="M2208 2354 c-81 -103 -103 -134 -95 -134 4 0 169 208 181 228 4 6 5 12 2 12 -3 0 -42 -48 -88 -106z" /><path d="M728 2135 c2 -143 6 -262 8 -264 7 -7 2 308 -6 419 -4 61 -5 -4 -2 -155z" /><path d="M643 2305 c12 -59 51 -185 58 -185 7 0 -32 139 -52 183 -8 19 -9 20 -6 2z" /><path d="M921 2145 c-3 -83 176 -884 193 -863 2 1 -25 116 -59 253 -34 138 -78 336 -98 440 -19 105 -36 181 -36 170z" /><path d="M340 1105 c0 -11 135 -146 180 -180 14 -11 -8 11 -47 48 -40 38 -86 85 -103 105 -16 20 -30 32 -30 27z" /><path d="M1126 1029 c104 -108 231 -257 337 -397 55 -73 102 -130 105 -128 15 16 -450 573 -488 584 -8 2 13 -24 46 -59z" /><path d="M1320 1024 c0 -14 172 -354 217 -427 19 -32 37 -56 40 -54 2 3 -7 22 -20 44 -14 21 -73 130 -131 243 -58 113 -106 200 -106 194z" /><path d="M620 857 c0 -12 178 -112 283 -159 62 -28 210 -84 330 -124 120 -41 242 -88 271 -104 29 -17 57 -30 62 -30 5 0 -23 18 -63 40 -39 22 -165 71 -280 109 -266 88 -429 161 -580 259 -13 8 -23 12 -23 9z" /><path d="M1111 2744 c-12 -15 -21 -35 -21 -45 0 -25 35 -43 59 -30 35 19 42 74 12 91 -27 14 -27 14 -50 -16z m59 -24 c0 -38 -61 -54 -68 -18 -2 9 6 26 18 38 17 17 24 19 36 9 8 -6 14 -19 14 -29z" /><path d="M2664 1740 c0 -129 2 -182 3 -117 2 64 2 170 0 235 -1 64 -3 11 -3 -118z" /><path d="M396 1895 l5 -30 -15 25 c-22 36 -19 20 5 -35 17 -38 23 -45 30 -33 6 11 2 31 -11 60 -16 35 -18 38 -14 13z" /><path d="M100 257 c0 -9 221 -189 226 -184 3 3 -41 42 -98 88 -130 104 -128 103 -128 96z" /></g></g></svg>